<svg id="Phone" xmlns="http://www.w3.org/2000/svg" width="61" height="61" viewBox="0 0 61 61">
  <rect id="Rectangle_320" data-name="Rectangle 320" width="61" height="61" fill="none"/>
  <path id="Path_110" data-name="Path 110" d="M35.4,43.571l6.536-5.991a2,2,0,0,1,1.634-.545l1.089.545,15.25,7.08C61,45.205,61,45.75,61,46.839c-.545,4.357-1.634,7.625-4.357,9.8A15.6,15.6,0,0,1,45.205,61a33.186,33.186,0,0,1-15.25-3.812,71.4,71.4,0,0,1-15.25-10.893c-2.723-3.812-5.991-7.625-8.17-11.982S2.179,26.143,1.089,22.33C0,19.063,0,15.25,0,11.982a14.312,14.312,0,0,1,3.813-8.17C5.991,1.634,9.259.545,14.161,0a2.83,2.83,0,0,1,2.179,1.089l8.17,15.25a1.9,1.9,0,0,0,.545,1.089,2,2,0,0,1-.545,1.634L17.429,25.6a2.431,2.431,0,0,0,0,2.723c1.634,3.268,4.357,5.991,6.536,8.714a54.992,54.992,0,0,0,8.714,7.08C33.768,44.661,34.857,44.661,35.4,43.571Z" transform="translate(0 0)" fill="#3a5199"/>
</svg>
